<?xml version="1.0" encoding="utf-8"?>
<!-- Generator: Adobe Illustrator 19.0.0, SVG Export Plug-In . SVG Version: 6.00 Build 0)  -->
<svg version="1.1" id="Layer_1" xmlns="http://www.w3.org/2000/svg" xmlns:xlink="http://www.w3.org/1999/xlink" x="0px" y="0px"
	 viewBox="0 0 159 60.7" style="enable-background:new 0 0 159 60.7;" xml:space="preserve">
<style type="text/css">
	.st0{fill:none;stroke:#FFFFFF;stroke-width:5.627;stroke-miterlimit:10;}
</style>
<path id="XMLID_1211_" class="st0" d="M149.4,51.2c0,0.1-0.1,0.2-0.2,0.2h-34.5c-0.1,0-0.2-0.1-0.2-0.2V25.4c0-0.1,0-0.3,0.1-0.3
	c0,0,5.4-8.4,16.8-8.4c13.2,0,18,8.4,18,8.4c0.1,0.1,0.1,0.2,0.1,0.4V51.2z"/>
<path id="XMLID_1206_" class="st0" d="M36.4,51.2c0,0.1-0.1,0.2-0.2,0.2H9.5c-0.1,0-0.2-0.1-0.2-0.2V24.4c0-0.1,0.1-0.3,0.1-0.3
	L22.9,8.5c0.1-0.1,0.2-0.1,0.2,0l13.1,15.6c0.1,0.1,0.1,0.2,0.1,0.3V51.2z"/>
<path id="XMLID_1175_" class="st0" d="M91.1,51.2c0,0.1-0.1,0.2-0.2,0.2H59.9c-0.1,0-0.2-0.1-0.2-0.2V20.1c0-0.1,0.1-0.2,0.2-0.2H91
	c0.1,0,0.2,0.1,0.2,0.2V51.2z"/>
<g id="XMLID_105_">
</g>
<g id="XMLID_106_">
</g>
<g id="XMLID_107_">
</g>
<g id="XMLID_108_">
</g>
<g id="XMLID_109_">
</g>
<g id="XMLID_110_">
</g>
</svg>
