<?xml version="1.0" encoding="utf-8"?>
<!-- Generator: Adobe Illustrator 19.0.0, SVG Export Plug-In . SVG Version: 6.00 Build 0)  -->
<svg version="1.1" id="Layer_1" xmlns="http://www.w3.org/2000/svg" xmlns:xlink="http://www.w3.org/1999/xlink" x="0px" y="0px"
	 viewBox="0 0 205.5 48.5" style="enable-background:new 0 0 205.5 48.5;" xml:space="preserve">
<style type="text/css">
	.st0{fill:#FFFFFF;}
</style>
<path id="XMLID_627_" class="st0" d="M31.8,21.2c0-1.3,1.1-2.4,2.4-2.4h0.5c1.2,0,1.9,0.6,2.5,1.4L51.1,38V21.1
	c0-1.3,1.1-2.4,2.4-2.4c1.3,0,2.4,1.1,2.4,2.4v23.2c0,1.3-1,2.4-2.4,2.4h-0.2c-1.1,0-1.9-0.6-2.5-1.5L36.6,26.8v17.5
	c0,1.3-1.1,2.4-2.4,2.4c-1.3,0-2.4-1.1-2.4-2.4V21.2z"/>
<path id="XMLID_624_" class="st0" d="M61.8,43.3L72,20.5c0.6-1.2,1.5-2,2.9-2h0.2c1.4,0,2.3,0.8,2.9,2l10.2,22.8
	c0.2,0.4,0.3,0.7,0.3,1c0,1.3-1,2.3-2.3,2.3c-1.1,0-1.9-0.7-2.4-1.7l-2.2-5.2H68.3l-2.3,5.3c-0.4,1-1.2,1.5-2.2,1.5
	c-1.3,0-2.2-1-2.2-2.2C61.4,44.1,61.6,43.7,61.8,43.3 M79.8,35.5l-4.8-11.1l-4.8,11.1H79.8z"/>
<path id="XMLID_623_" class="st0" d="M91.8,32.8L91.8,32.8c0-7.9,5.9-14.3,14.2-14.3c4.3,0,7.1,1.3,9.5,3.1c0.5,0.4,0.9,1.1,0.9,1.9
	c0,1.3-1.1,2.4-2.4,2.4c-0.7,0-1.1-0.2-1.5-0.5c-1.9-1.5-3.9-2.5-6.6-2.5c-5.2,0-9.1,4.3-9.1,9.7v0.1c0,5.4,3.8,9.8,9.1,9.8
	c2.9,0,4.9-0.9,6.9-2.6c0.4-0.3,0.9-0.6,1.5-0.6c1.2,0,2.3,1,2.3,2.2c0,0.7-0.4,1.3-0.8,1.7c-2.6,2.3-5.6,3.7-10,3.7
	C97.8,47,91.8,40.7,91.8,32.8"/>
<path id="XMLID_619_" class="st0" d="M120.9,43.3l10.2-22.8c0.5-1.2,1.5-2,2.9-2h0.2c1.4,0,2.3,0.8,2.9,2l10.2,22.8
	c0.2,0.4,0.3,0.7,0.3,1c0,1.3-1,2.3-2.3,2.3c-1.1,0-1.9-0.7-2.4-1.7l-2.2-5.2h-13.4l-2.3,5.3c-0.4,1-1.2,1.5-2.2,1.5
	c-1.3,0-2.2-1-2.2-2.2C120.6,44.1,120.7,43.7,120.9,43.3 M138.9,35.5l-4.8-11.1l-4.8,11.1H138.9z"/>
<path id="XMLID_618_" class="st0" d="M152.3,43.4c-0.6-0.4-0.9-1.1-0.9-1.8c0-1.3,1-2.2,2.3-2.2c0.7,0,1.1,0.2,1.4,0.4
	c2.3,1.8,4.7,2.8,7.7,2.8c3,0,4.9-1.4,4.9-3.5V39c0-2-1.1-3-6.2-4.2c-5.9-1.4-9.2-3.2-9.2-8.2v-0.1c0-4.7,3.9-8,9.4-8
	c3.5,0,6.3,0.9,8.7,2.6c0.6,0.3,1.1,1,1.1,1.9c0,1.3-1,2.2-2.3,2.2c-0.5,0-0.9-0.1-1.3-0.4c-2.1-1.4-4.2-2.1-6.3-2.1
	c-2.8,0-4.5,1.5-4.5,3.3v0.1c0,2.1,1.3,3.1,6.6,4.3c5.8,1.4,8.8,3.5,8.8,8.1v0.1c0,5.2-4.1,8.2-9.8,8.2
	C158.9,46.9,155.3,45.7,152.3,43.4"/>
<path id="XMLID_614_" class="st0" d="M176.7,43.3l10.2-22.8c0.6-1.2,1.5-2,2.9-2h0.2c1.4,0,2.3,0.8,2.9,2l10.2,22.8
	c0.2,0.4,0.3,0.7,0.3,1c0,1.3-1,2.3-2.3,2.3c-1.1,0-1.9-0.7-2.4-1.7l-2.2-5.2h-13.4l-2.3,5.3c-0.4,1-1.2,1.5-2.2,1.5
	c-1.3,0-2.2-1-2.2-2.2C176.4,44.1,176.5,43.7,176.7,43.3 M194.7,35.5l-4.8-11.1L185,35.5H194.7z"/>
<path id="XMLID_613_" class="st0" d="M1.7,34.7V21c0-1.3,1.1-2.4,2.4-2.4c1.3,0,2.4,1.1,2.4,2.4v13.5c0,5.1,2.6,7.8,7,7.8
	c4.3,0,6.9-2.6,6.9-7.6V21c0-1.3,1.1-2.4,2.4-2.4c1.3,0,2.4,1.1,2.4,2.4v13.4c0,8.2-4.7,12.4-11.9,12.4C6.3,46.8,1.7,42.7,1.7,34.7"
	/>
<path id="XMLID_612_" class="st0" d="M23,15.5c-0.6,0-1.2-0.2-1.7-0.7l-7.9-7.9l-7.8,7.8c-0.9,0.9-2.4,0.9-3.3,0
	c-0.9-0.9-0.9-2.4,0-3.3l9.1-9.1c0.5-0.5,1.2-0.8,2-0.8s1.5,0.3,2,0.8l9.2,9.2c0.9,0.9,0.9,2.4,0,3.3C24.2,15.3,23.6,15.5,23,15.5"
	/>
<path id="XMLID_605_" class="st0" d="M198.3,20.2c0-1.3,1-2.4,2.4-2.4c1.3,0,2.4,1,2.4,2.4c0,1.3-1,2.4-2.4,2.4
	C199.3,22.5,198.3,21.5,198.3,20.2 M202.6,20.2c0-1.1-0.9-2-2-2c-1.1,0-2,0.9-2,2c0,1.1,0.9,2,2,2C201.7,22.2,202.6,21.3,202.6,20.2
	 M201.7,21.5h-0.4l-0.8-1.2h-0.4v1.2h-0.4v-2.6h1.1c0.5,0,0.9,0.1,0.9,0.7c0,0.5-0.4,0.7-0.8,0.7L201.7,21.5z M200.5,19.9
	c0.3,0,0.9,0.1,0.9-0.4c0-0.3-0.4-0.3-0.6-0.3h-0.7v0.7H200.5z"/>
<g id="XMLID_92_">
</g>
<g id="XMLID_93_">
</g>
<g id="XMLID_94_">
</g>
<g id="XMLID_95_">
</g>
<g id="XMLID_96_">
</g>
<g id="XMLID_97_">
</g>
</svg>
