<?xml version="1.0" encoding="utf-8"?>
<!-- Generator: Adobe Illustrator 19.0.0, SVG Export Plug-In . SVG Version: 6.00 Build 0)  -->
<svg version="1.1" id="Layer_1" xmlns="http://www.w3.org/2000/svg" xmlns:xlink="http://www.w3.org/1999/xlink" x="0px" y="0px"
	 viewBox="0 0 526.1 140.6" style="enable-background:new 0 0 526.1 140.6;" xml:space="preserve">
<style type="text/css">
	.st0{fill:#231F20;}
</style>
<g id="XMLID_1854_">
	<g id="XMLID_2008_">
		<path id="XMLID_2022_" class="st0" d="M96,57.8c0-3.2,2.5-5.8,5.8-5.8h1.2c2.8,0,4.4,1.4,6,3.4l32.8,42.4V57.5
			c0-3.1,2.5-5.6,5.6-5.6c3.2,0,5.7,2.5,5.7,5.6v55.1c0,3.2-2.4,5.7-5.6,5.7h-0.5c-2.7,0-4.4-1.4-6-3.5l-33.7-43.7v41.6
			c0,3.1-2.5,5.6-5.6,5.6c-3.2,0-5.7-2.5-5.7-5.6V57.8z"/>
		<path id="XMLID_2019_" class="st0" d="M167.3,110.4l24.4-54.4c1.3-2.9,3.7-4.7,6.9-4.7h0.6c3.3,0,5.5,1.8,6.8,4.7l24.4,54.4
			c0.5,0.8,0.7,1.7,0.7,2.4c0,3.1-2.3,5.5-5.4,5.5c-2.7,0-4.6-1.6-5.6-4l-5.3-12.3h-31.9l-5.5,12.6c-0.9,2.3-2.9,3.7-5.3,3.7
			c-3,0-5.3-2.3-5.3-5.3C166.5,112.2,166.8,111.4,167.3,110.4z M210.2,91.9l-11.5-26.5l-11.5,26.5H210.2z"/>
		<path id="XMLID_2017_" class="st0" d="M238.7,85.3v-0.2c0-18.6,14-33.9,33.8-33.9c10.1,0,16.8,3,22.5,7.4c1.2,0.9,2.3,2.5,2.3,4.6
			c0,3.2-2.5,5.6-5.7,5.6c-1.6,0-2.7-0.6-3.5-1.1c-4.5-3.7-9.4-5.9-15.7-5.9c-12.5,0-21.6,10.3-21.6,23.2v0.2
			c0,12.8,9.1,23.2,21.6,23.2c6.9,0,11.6-2.2,16.4-6.3c0.8-0.8,2.1-1.3,3.5-1.3c2.9,0,5.4,2.4,5.4,5.3c0,1.8-0.8,3.2-1.9,4.1
			c-6.2,5.4-13.2,8.8-23.8,8.8C252.9,119.1,238.7,104.2,238.7,85.3z"/>
		<path id="XMLID_2014_" class="st0" d="M307.9,110.4l24.4-54.4c1.3-2.9,3.7-4.7,6.9-4.7h0.6c3.3,0,5.5,1.8,6.8,4.7l24.4,54.4
			c0.5,0.8,0.7,1.7,0.7,2.4c0,3.1-2.3,5.5-5.4,5.5c-2.7,0-4.6-1.6-5.6-4l-5.3-12.3h-31.9l-5.5,12.6c-0.9,2.3-2.9,3.7-5.3,3.7
			c-3,0-5.3-2.3-5.3-5.3C307.2,112.2,307.5,111.4,307.9,110.4z M350.8,91.9l-11.5-26.5l-11.5,26.5H350.8z"/>
		<path id="XMLID_2012_" class="st0" d="M382.6,110.6c-1.3-0.9-2.2-2.5-2.2-4.4c0-3,2.4-5.3,5.4-5.3c1.6,0,2.6,0.5,3.4,1
			c5.4,4.3,11.2,6.7,18.4,6.7c7.1,0,11.6-3.4,11.6-8.2v-0.2c0-4.7-2.6-7.2-14.8-10c-14-3.4-21.8-7.5-21.8-19.6v-0.2
			c0-11.2,9.4-19,22.4-19c8.2,0,14.9,2.2,20.8,6.1c1.3,0.7,2.5,2.3,2.5,4.6c0,3-2.4,5.3-5.4,5.3c-1.1,0-2.1-0.3-3-0.8
			c-5.1-3.3-9.9-5-15.1-5c-6.7,0-10.7,3.5-10.7,7.8v0.2c0,5.1,3,7.3,15.7,10.3c13.9,3.4,21,8.3,21,19.2v0.2
			c0,12.3-9.7,19.6-23.4,19.6C398.4,118.9,389.9,116.1,382.6,110.6z"/>
		<path id="XMLID_2009_" class="st0" d="M440.7,110.4l24.4-54.4c1.3-2.9,3.7-4.7,6.9-4.7h0.6c3.3,0,5.5,1.8,6.8,4.7l24.4,54.4
			c0.5,0.8,0.7,1.7,0.7,2.4c0,3.1-2.3,5.5-5.4,5.5c-2.7,0-4.6-1.6-5.6-4l-5.3-12.3h-31.9l-5.5,12.6c-0.9,2.3-2.9,3.7-5.3,3.7
			c-3,0-5.3-2.3-5.3-5.3C440,112.2,440.3,111.4,440.7,110.4z M483.6,91.9l-11.5-26.5l-11.5,26.5H483.6z"/>
	</g>
	<g id="XMLID_1979_">
		<g id="XMLID_1997_">
			<path id="XMLID_1999_" class="st0" d="M24.4,89.8V57.3c0-3.2,2.5-5.7,5.8-5.7c3.2,0,5.7,2.5,5.7,5.7v32.1
				c0,12.2,6.3,18.7,16.6,18.7c10.2,0,16.5-6.1,16.5-18.2V57.3c0-3.2,2.5-5.7,5.8-5.7c3.2,0,5.7,2.5,5.7,5.7v32
				c0,19.6-11.1,29.4-28.2,29.4C35.3,118.7,24.4,108.9,24.4,89.8z"/>
		</g>
		<g id="XMLID_1991_">
			<path id="XMLID_1996_" class="st0" d="M75.1,44.3c-1.4,0-2.8-0.5-3.9-1.6L52.3,23.8L33.8,42.3c-2.2,2.2-5.7,2.2-7.9,0
				c-2.2-2.2-2.2-5.7,0-7.9l21.6-21.6c1.3-1.3,2.9-2,4.7-2c1.8,0,3.5,0.7,4.7,2l22,22c2.2,2.2,2.2,5.7,0,7.9
				C77.9,43.7,76.5,44.3,75.1,44.3z"/>
		</g>
	</g>
	<path id="XMLID_1858_" class="st0" d="M492,55.3c0-3.1,2.5-5.6,5.6-5.6c3.1,0,5.6,2.5,5.6,5.6c0,3.1-2.5,5.6-5.6,5.6
		C494.5,60.9,492,58.5,492,55.3 M502.4,55.3c0-2.6-2.2-4.7-4.8-4.7c-2.6,0-4.8,2.1-4.8,4.7c0,2.6,2.2,4.7,4.8,4.7
		C500.2,60.1,502.4,58,502.4,55.3 M500.3,58.4h-1l-1.8-2.8h-1v2.8h-0.9v-6.1h2.7c1.1,0,2.2,0.3,2.2,1.6c0,1.2-0.8,1.6-1.9,1.7
		L500.3,58.4z M497.5,54.7c0.8,0,2.1,0.1,2.1-0.8c0-0.6-0.8-0.7-1.5-0.7h-1.6v1.6H497.5z"/>
</g>
<g id="XMLID_53_">
</g>
<g id="XMLID_54_">
</g>
<g id="XMLID_55_">
</g>
<g id="XMLID_56_">
</g>
<g id="XMLID_57_">
</g>
<g id="XMLID_58_">
</g>
</svg>
